<svg xmlns="http://www.w3.org/2000/svg" id="PawHouse_Logo_2025" viewBox="0 0 3000 3000"><defs><filter id="drop-shadow-1" width="233.8" height="112.6" x="2276.8" y="1519.3" filterUnits="userSpaceOnUse"><feOffset dx="7" dy="7"/><feGaussianBlur result="blur" stdDeviation="5"/><feFlood flood-color="#000" flood-opacity=".8"/><feComposite in2="blur" operator="in"/><feComposite in="SourceGraphic"/></filter><filter id="drop-shadow-2" width="234" height="112.6" x="523.9" y="1518.6" filterUnits="userSpaceOnUse"><feOffset dx="7" dy="7"/><feGaussianBlur result="blur1" stdDeviation="5"/><feFlood flood-color="#000" flood-opacity=".8"/><feComposite in2="blur1" operator="in"/><feComposite in="SourceGraphic"/></filter><filter id="drop-shadow-3" width="1508.6" height="562.3" x="731.7" y="1884.4" filterUnits="userSpaceOnUse"><feOffset dx="7" dy="7"/><feGaussianBlur result="blur2" stdDeviation="5"/><feFlood flood-color="#000" flood-opacity=".8"/><feComposite in2="blur2" operator="in"/><feComposite in="SourceGraphic"/></filter><filter id="drop-shadow-4" width="1609.9" height="517.4" x="711.6" y="726.1" filterUnits="userSpaceOnUse"><feOffset dx="7" dy="7"/><feGaussianBlur result="blur3" stdDeviation="5"/><feFlood flood-color="#000" flood-opacity=".8"/><feComposite in2="blur3" operator="in"/><feComposite in="SourceGraphic"/></filter><style>.st0,.st1{fill-rule:evenodd}.st0,.st2,.st3,.st4{fill:#1a2b56}.st1,.st9{fill:#fff}.st2{stroke:#1a2b56;stroke-width:40px}.st2,.st3{stroke-miterlimit:10}.st10{fill:#f9faf7}.st11{fill:#14274c}.st12{fill:#163463}.st3{stroke:#fff;stroke-width:20px}.st13{fill:#16284c}</style></defs><path d="M652.9 1443.2H364.7l139.8 134.3-139.8 134.2h401.1v-268.5Z" class="st2"/><path d="M652.9 1443.2H364.7l139.8 134.3-139.8 134.2h401.1v-268.5Z" class="st3"/><path d="M652.9 1443.2H364.7l139.8 134.3-139.8 134.2h401.1v-268.5Z" class="st12"/><path d="M2357.1 1446.7h288.2l-139.8 134.2 139.8 134.2h-401.1v-268.4Z" class="st2"/><path d="M2357.1 1446.7h288.2l-139.8 134.2 139.8 134.2h-401.1v-268.4Z" class="st3"/><path d="M2357.1 1446.7h288.2l-139.8 134.2 139.8 134.2h-401.1v-268.4Z" class="st12"/><path d="M2139 1032.9v711.9c0 6.2-.1 12.4-.4 18.6-.2 5.9-.6 11.9-1.1 17.8-.1 1.6-.2 3.3-.4 4.8-.4 4.2-.8 8.5-1.4 12.7-.2 1.9-.4 3.9-.8 5.8-.4 3.9-1 7.8-1.6 11.7-.7 4.1-1.4 8.3-2.3 12.4-.1.9-.3 1.8-.5 2.7-.6 3.3-1.3 6.6-2.2 9.7q-1.2 6.3-3 12.6c-1.3 5.5-2.9 11-4.5 16.4-.2.8-.5 1.6-.7 2.5-1.4 4.7-3 9.4-4.6 14.1-.3 1-.7 2-1 3.1-1.5 4.4-3.2 8.7-4.9 13-.4 1.5-1 3-1.7 4.5-1.5 4-3.2 8-5 12-.3 1.1-.8 2.4-1.4 3.5-1.5 3.6-3.2 7.2-4.9 10.8-1 2.3-2 4.4-3.3 6.7-1.5 3.3-3.2 6.6-5 9.8-1.8 3.5-3.7 7-5.7 10.4q-3 5.7-6.6 11.4c-2.9 4.8-5.7 9.4-8.9 14.1-6.1 9.4-12.7 18.5-19.5 27.5q-5.1 6.45-10.5 12.9c-9.8 11.9-20.4 23.2-31.4 33.9-2.7 2.7-5.4 5.3-8.2 7.7-7.1 6.7-14.3 13-21.9 19.1-3.5 2.9-7.1 5.6-10.7 8.3-.5.5-1.1.9-1.7 1.3-4.1 3.1-8.3 6.1-12.5 9.1-.1 0-.2.1-.3.2-4.6 3.2-9.3 6.4-14 9.3-3.7 2.4-7.4 4.6-11.2 6.9-2.5 1.5-4.9 3-7.4 4.3-.5.3-1.1.6-1.6.9q-6.45 3.75-13.2 7.2c-4.7 2.5-9.5 4.9-14.5 7.2-4.3 2.2-8.7 4.1-13.1 6-4.7 2-9.4 4-14.2 5.8-5.8 2.4-11.8 4.6-17.8 6.7l-337.9 116.9-338-116.9c-6-2-12-4.3-17.8-6.7-4.8-1.8-9.5-3.8-14.2-5.8-4.4-1.9-8.8-3.9-13.1-6-4.9-2.3-9.6-4.7-14.4-7.2-4.7-2.5-9.4-5-14-7.7-2.8-1.5-5.4-3.1-8.1-4.7-3.8-2.3-7.5-4.5-11.2-6.9-4.2-2.7-8.3-5.3-12.3-8.1-1.5-1.1-3.1-2.2-4.6-3.3-3.3-2.4-6.6-4.7-9.7-7.1-.7-.5-1.3-1-1.9-1.5-3.6-2.7-7.2-5.4-10.7-8.3-7.6-6-14.9-12.4-21.9-19.1-2.8-2.5-5.5-5-8.2-7.7-7.6-7.3-14.9-14.9-21.8-22.6-3.5-3.9-6.9-7.9-10.1-11.9-3.5-4-6.8-8.1-9.8-12.3l-.2-.2c-3.5-4.6-7.1-9.3-10.5-14.1-8-11.2-15.5-22.7-22.2-34.7-1.8-3.1-3.6-6.3-5.3-9.4-.9-1.6-1.8-3.3-2.7-4.9-1.7-3.3-3.4-6.6-5-9.8-1.1-2.3-2.3-4.4-3.3-6.7-1.7-3.6-3.4-7.2-4.9-10.8-.6-1.1-1-2.4-1.4-3.5-1.8-4-3.5-8-5-12-.7-1.5-1.3-3-1.7-4.5-1.7-4.3-3.4-8.6-4.9-13-.3-1-.7-2-1-3.1-1.6-4.7-3.2-9.4-4.6-14.1-.2-.8-.5-1.6-.7-2.5-1.6-5.4-3.2-10.9-4.5-16.4-1.1-4.2-2.2-8.4-3-12.6-.8-3.2-1.5-6.5-2.2-9.7-.2-.8-.3-1.7-.5-2.7-.8-4.1-1.5-8.3-2.3-12.4-.6-3.9-1.2-7.8-1.6-11.7-.4-1.9-.6-3.9-.8-5.8-.6-4.2-1-8.5-1.4-12.7-.2-1.5-.3-3.2-.4-4.8-.5-5.9-.9-11.9-1.1-17.8-.3-6.2-.4-12.4-.4-18.6v-711.9c0-3.9.4-7.8 1.2-11.6h1265.5c.8 3.8 1.2 7.7 1.2 11.6Z" class="st10"/><path d="M2233.7 1027.2h-98.9c.8 3.8 1.1 7.6 1.1 11.6v708.5c0 6.2-.1 12.3-.4 18.6-.2 5.9-.6 11.8-1.1 17.8-.1 1.6-.2 3.3-.4 4.8-.4 4.2-.8 8.5-1.4 12.7-.2 1.9-.4 3.9-.8 5.8-.4 3.9-1 7.8-1.6 11.6-.7 4.1-1.4 8.3-2.2 12.3-.1.9-.3 1.8-.5 2.6-.6 3.3-1.3 6.5-2.1 9.7-.8 4.2-1.8 8.4-3 12.5-1.3 5.5-2.9 10.9-4.5 16.3-.2.8-.5 1.6-.7 2.4-1.4 4.7-3 9.4-4.6 14.1-.3 1-.7 2-1 3.1-1.5 4.4-3.2 8.7-4.9 13-.4 1.5-1 3-1.7 4.5-1.5 4-3.2 8-5 11.9-.3 1.1-.8 2.3-1.4 3.5-1.5 3.6-3.2 7.1-4.9 10.7-1 2.2-2 4.4-3.3 6.6-1.5 3.3-3.2 6.5-5 9.8-1.8 3.5-3.7 6.9-5.7 10.4-2 3.8-4.2 7.5-6.5 11.3-2.9 4.8-5.7 9.4-8.9 14.1-6.1 9.4-12.6 18.5-19.4 27.3-3.4 4.3-6.8 8.6-10.4 12.9-9.8 11.8-20.3 23-31.3 33.8-2.7 2.6-5.4 5.3-8.2 7.6-7 6.6-14.3 13-21.8 19-3.5 2.9-7 5.6-10.6 8.3-.5.5-1.1.9-1.7 1.3-4.1 3.1-8.3 6.1-12.4 9.1-.1 0-.2.1-.3.2-4.6 3.2-9.3 6.3-14 9.3-3.7 2.3-7.3 4.6-11.1 6.8-2.5 1.5-4.9 3-7.3 4.3-.5.3-1.1.6-1.6.9-4.3 2.4-8.7 4.9-13.1 7.1-4.7 2.5-9.5 4.9-14.4 7.1-4.3 2.1-8.7 4.1-13 6-4.7 2-9.4 4-14.2 5.8q-8.7 3.6-17.7 6.6l-336.3 116.4-336.4-116.4c-6-2-11.9-4.3-17.8-6.6-4.8-1.8-9.5-3.8-14.2-5.8-4.4-1.9-8.8-3.9-13.1-6-4.9-2.2-9.6-4.7-14.4-7.1-4.7-2.4-9.4-5-14-7.6-2.8-1.5-5.4-3.1-8.1-4.7-3.8-2.2-7.4-4.5-11.1-6.8-4.2-2.6-8.3-5.3-12.2-8.1-1.5-1.1-3.1-2.1-4.6-3.3-3.3-2.4-6.5-4.7-9.7-7-.7-.5-1.3-1-1.9-1.5-3.6-2.6-7.1-5.4-10.6-8.3-7.6-6-14.8-12.3-21.8-19-2.8-2.4-5.5-5-8.2-7.6-7.6-7.2-14.8-14.8-21.7-22.5-3.5-3.9-6.8-7.9-10.1-11.8-3.5-4-6.7-8.1-9.8-12.2l-.2-.2c-3.5-4.6-7-9.3-10.4-14.1-8-11.1-15.4-22.6-22.1-34.6-1.8-3.1-3.6-6.2-5.3-9.4-.9-1.6-1.8-3.3-2.7-4.9-1.7-3.3-3.4-6.5-5-9.8l-3.3-6.6c-1.7-3.6-3.4-7.1-4.9-10.7-.6-1.1-1-2.3-1.4-3.5-1.8-4-3.5-8-5-11.9-.7-1.5-1.3-3-1.7-4.5-1.7-4.3-3.4-8.6-4.9-13-.3-1-.7-2-1-3.1-1.6-4.7-3.2-9.4-4.6-14.1-.2-.8-.5-1.6-.7-2.4-1.6-5.4-3.2-10.8-4.5-16.3-1.1-4.2-2.1-8.4-3-12.5-.8-3.2-1.5-6.4-2.1-9.7-.2-.8-.3-1.7-.5-2.6-.8-4.1-1.5-8.3-2.2-12.3-.6-3.9-1.2-7.8-1.6-11.6-.4-1.9-.6-3.9-.8-5.8-.6-4.2-1-8.5-1.4-12.7-.2-1.5-.3-3.2-.4-4.8-.5-5.9-.9-11.8-1.1-17.8-.3-6.2-.4-12.3-.4-18.6v-708.5c0-3.9.4-7.8 1.2-11.6h-98.9c-.3 3.8-.4 7.7-.4 11.6v708.5c0 60.1 10 118.4 28.8 173.1 52.3 153.4 172.9 278.3 332 333.3l368.4 127.5 368.4-127.5c159-55 279.6-179.9 331.9-333.3 18.8-54.7 28.8-113 28.8-173.1v-708.5c0-3.9-.1-7.7-.4-11.6Z" class="st13"/><g style="filter:url(#drop-shadow-1)"><path d="M2328.3 1547.9c0 24.3-32.7 33-32.9 51.5v1.3h31.8v8.2h-42.4v-6.9c0-26 32.7-31.1 32.7-53.7s-3.3-12.7-11.3-12.7-11.3 4.7-11.3 11.8v7.1h-10.1v-6.6c0-12.3 6.8-20.5 21.7-20.5s21.8 8.1 21.8 20.4Zm9.1-.1c0-12.3 7.3-20.2 22.1-20.2s22.2 7.9 22.2 20.2v41.5c0 12.3-7.3 20.4-22.2 20.4s-22.1-8.1-22.1-20.4Zm10.6 42.1c0 7.2 3.7 11.6 11.5 11.6s11.5-4.4 11.5-11.6v-42.6c0-7.4-3.6-11.7-11.5-11.7s-11.5 4.4-11.5 11.7Zm87.4-42c0 24.3-32.7 33-32.9 51.5v1.3h31.8v8.2h-42.4v-6.9c0-26 32.7-31.1 32.7-53.7s-3.3-12.7-11.3-12.7-11.3 4.7-11.3 11.8v7.1h-10.1v-6.6c0-12.3 6.8-20.5 21.7-20.5s21.8 8.1 21.8 20.4Zm20.7 13.2c3-4.4 7.9-6.7 14.4-6.7 12.4 0 17.9 7.6 17.9 19.1v15.8c0 12.3-7 20.4-21.8 20.4s-21.7-8.1-21.7-20.4v-5.4h10.1v6c0 7.2 3.6 11.6 11.3 11.6s11.3-4.4 11.3-11.6v-15.6c0-7.2-3.6-11.6-11.3-11.6s-9.9 2.8-10.9 8.6v1.8h-10.1l2.6-44.7h38.1v8.1h-28.4l-1.5 24.7Z" class="st9"/></g><path d="M1505.1 481.1 949 802.7h1157.3Z" class="st10"/><path d="M2233.7 868c-3.8-51.8-33-98.7-78.4-124.9l-147.9-85.4V432.4h19.8v-61.2h-197.8v61.2h21v134.7l-345.3-199.4-650.3 375.4c-45.4 26.2-74.6 73.1-78.4 124.9v108.9h97.8V868h1.2c3.3-16.6 13.7-31.3 28.6-39.8l601.1-347.1 601.1 347.1c15 8.6 25.2 23.3 28.5 39.8h1.2v108.9h97.8Z" class="st13"/><path d="M2451.9 1192c-93.7-165.7-229.7-304.7-393.2-402.2-82.7-49.3-171.6-87.4-264.1-113.3-95.4-26.7-194.6-40.2-294.6-40.2s-199.1 13.5-294.6 40.2c-92.5 25.8-181.4 64-264.1 113.3-163.5 97.5-299.5 236.6-393.2 402.2l-12.5 22.1 35.7 19.4c93.7 50.8 187.3 101.7 281 152.5l21.4 11.6 12.2-21.1c61.1-106.1 149.1-195 254.5-257.3 108.5-64.1 232.9-98 359.6-98s251.1 33.9 359.6 98c105.4 62.3 193.4 151.3 254.5 257.3l12.2 21.1 21.4-11.6c73.2-39.7 146.4-79.5 219.7-119.2l97.1-52.7-12.5-22.1Z" class="st4"/><path d="M2438.9 1199.4c-92.4-163.4-226.5-300.6-387.8-396.7-81.6-48.6-169.2-86.2-260.5-111.7-94.1-26.3-191.9-39.6-290.5-39.6s-196.4 13.3-290.5 39.6c-91.2 25.5-178.9 63.1-260.5 111.7-161.3 96.1-295.4 233.3-387.8 396.7l-5 8.9 22.3 12.1c93.7 50.8 187.3 101.7 281 152.5l8.6 4.7 4.9-8.4c62.4-108.3 152.2-199.2 259.8-262.8 110.8-65.5 237.8-100.1 367.3-100.1s256.4 34.6 367.3 100.1c107.6 63.6 197.5 154.4 259.8 262.8l4.9 8.4 8.6-4.7c73.2-39.7 146.4-79.5 219.7-119.2l83.7-45.4-5-8.9Z" class="st9"/><path d="M1500 661.3c398.9 0 746.8 218.9 930.2 543-98.1 53.3-196.3 106.5-294.4 159.8-126.6-219.8-363.9-367.9-635.8-367.9s-509.2 148-635.8 367.9c-98.1-53.2-196.3-106.5-294.4-159.8 183.4-324.1 531.2-543 930.2-543m0 1827.8c-398.9 0-746.8-218.9-930.2-543 98.1-53.3 196.3-106.5 294.4-159.8 126.6 219.8 363.9 367.9 635.8 367.9s509.2-148 635.8-367.9c98.1 53.2 196.3 106.5 294.4 159.8-183.4 324.1-531.2 543-930.2 543" class="st0"/><path d="M1500 2504.1c-99.1 0-197.3-13.4-291.9-39.8-91.7-25.6-179.7-63.4-261.7-112.2-162-96.6-296.8-234.4-389.6-398.6l-7.5-13.3 13.4-7.3c98.1-53.3 196.3-106.5 294.4-159.8l12.9-7 7.3 12.7c61.9 107.6 151.2 197.8 258 260.9 110.1 65 236.2 99.4 364.7 99.4s254.7-34.4 364.7-99.4c106.9-63.2 196.1-153.4 258-260.9l7.3-12.7 12.9 7c75 40.7 149.9 81.4 224.9 122.1l82.9 45-7.5 13.3c-92.9 164.1-227.6 302-389.6 398.6-82 48.9-170 86.6-261.7 112.2-94.6 26.4-192.8 39.8-291.9 39.8M590.5 1952c90 153.8 218.1 283 371.3 374.3 79.7 47.5 165.3 84.2 254.4 109.1 91.9 25.7 187.4 38.7 283.8 38.7s191.9-13 283.8-38.7c89.1-24.9 174.7-61.6 254.4-109.1 153.2-91.3 281.3-220.5 371.3-374.3l-56-30.4c-70.7-38.4-141.5-76.8-212.2-115.1-64.1 106.5-154.2 195.9-261.4 259.2-114.7 67.8-246.1 103.6-380 103.6s-265.3-35.8-380-103.6c-107.1-63.3-197.2-152.7-261.4-259.2-89.4 48.5-178.8 97-268.1 145.5Z" class="st4"/><path d="M1500 2499.1c-98.7 0-196.4-13.3-290.5-39.6-91.2-25.5-178.9-63.1-260.5-111.7-161.3-96.1-295.4-233.3-387.8-396.7l-5-8.9 8.9-4.9c98.1-53.3 196.3-106.5 294.4-159.8l8.6-4.7 4.9 8.4c62.4 108.3 152.2 199.2 259.8 262.8 110.8 65.5 237.8 100.1 367.3 100.1s256.4-34.6 367.3-100.1c107.6-63.6 197.5-154.4 259.8-262.8l4.9-8.4 8.6 4.7c75 40.7 149.9 81.4 224.9 122.1l78.4 42.6-5 8.9c-92.4 163.4-226.5 300.6-387.8 396.7-81.6 48.6-169.2 86.2-260.5 111.7-94.1 26.3-191.9 39.6-290.5 39.6ZM583.6 1950c90.5 156.5 220.2 287.9 375.6 380.6 80.1 47.7 166.1 84.6 255.6 109.6 92.4 25.8 188.3 38.9 285.2 38.9s192.8-13.1 285.2-38.9c89.5-25 175.5-61.9 255.6-109.6 155.4-92.6 285.1-224.1 375.6-380.6l-60.5-32.8c-72.1-39.1-144.3-78.3-216.4-117.4-63.8 107.6-154.3 197.9-262.1 261.6-113.9 67.3-244.4 102.9-377.4 102.9s-263.5-35.6-377.4-102.9c-107.8-63.7-198.2-154-262.1-261.6l-276.9 150.3Z" class="st4"/><path d="M1500 2514.1c-100 0-199.1-13.5-294.6-40.2-92.5-25.8-181.4-64-264.1-113.3-163.5-97.5-299.5-236.6-393.2-402.2l-12.5-22.1 22.4-12.1c98.1-53.3 196.3-106.5 294.4-159.8l21.4-11.6 12.2 21.1c61.1 106.1 149.1 195 254.5 257.3 108.5 64.1 232.9 98 359.6 98s251.1-33.9 359.6-98c105.4-62.3 193.4-151.3 254.5-257.3l12.2-21.1 21.4 11.6c74.1 40.2 148.1 80.4 222.2 120.6l94.5 51.3-12.5 22.1c-93.7 165.7-229.7 304.7-393.2 402.2-82.7 49.3-171.6 87.4-264.1 113.3-95.4 26.7-194.6 40.2-294.6 40.2Zm-895.6-558.3c88.8 148.4 213.9 273.3 362.5 361.9 78.9 47.1 163.7 83.4 252 108.1 91.1 25.4 185.6 38.3 281.1 38.3s190-12.9 281.1-38.3c88.3-24.7 173-61 252-108.1 148.6-88.6 273.7-213.5 362.5-361.9l-54.7-29.7c-65.3-35.5-130.7-70.9-196-106.4-64.6 104.3-154.2 192.1-259.9 254.5-116.2 68.7-249.4 105-385.1 105s-268.8-36.3-385.1-105c-105.7-62.4-195.2-150.2-259.9-254.5-83.6 45.3-167.1 90.7-250.7 136Z" class="st4"/><path d="M1500 2489.1c-398.9 0-746.8-218.9-930.2-543 98.1-53.3 196.3-106.5 294.4-159.8 126.6 219.8 363.9 367.9 635.8 367.9s509.2-148 635.8-367.9c98.1 53.2 196.3 106.5 294.4 159.8-183.4 324.1-531.2 543-930.2 543" class="st1"/><path d="M1500 2499.1c-98.7 0-196.4-13.3-290.5-39.6-91.2-25.5-178.9-63.1-260.5-111.7-161.3-96.1-295.4-233.3-387.8-396.7l-5-8.9 8.9-4.9c98.1-53.3 196.3-106.5 294.4-159.8l8.6-4.7 4.9 8.4c62.4 108.3 152.2 199.2 259.8 262.8 110.8 65.5 237.8 100.1 367.3 100.1s256.4-34.6 367.3-100.1c107.6-63.6 197.5-154.4 259.8-262.8l4.9-8.4 8.6 4.7c75 40.7 149.9 81.4 224.9 122.1l78.4 42.6-5 8.9c-92.4 163.4-226.5 300.6-387.8 396.7-81.6 48.6-169.2 86.2-260.5 111.7-94.1 26.3-191.9 39.6-290.5 39.6ZM583.6 1950c90.5 156.5 220.2 287.9 375.6 380.6 80.1 47.7 166.1 84.6 255.6 109.6 92.4 25.8 188.3 38.9 285.2 38.9s192.8-13.1 285.2-38.9c89.5-25 175.5-61.9 255.6-109.6 155.4-92.6 285.1-224.1 375.6-380.6l-60.5-32.8c-72.1-39.1-144.3-78.3-216.4-117.4-63.8 107.6-154.3 197.9-262.1 261.6-113.9 67.3-244.4 102.9-377.4 102.9s-263.5-35.6-377.4-102.9c-107.8-63.7-198.2-154-262.1-261.6l-276.9 150.3Z" class="st9"/><path d="M1500 2489.1c-398.9 0-746.8-218.9-930.2-543 98.1-53.3 196.3-106.5 294.4-159.8 126.6 219.8 363.9 367.9 635.8 367.9s509.2-148 635.8-367.9c98.1 53.2 196.3 106.5 294.4 159.8-183.4 324.1-531.2 543-930.2 543" class="st0"/><g style="filter:url(#drop-shadow-2)"><path d="M577.9 1563.3v8.1h-31.5v28.6h38.7v8.2h-53v-80.5h53v8.2h-38.7v27.5h31.5Zm76.2-16.4v2.2h-13.6v-2.6c0-7.2-4.4-11.5-14.7-11.5s-14.7 4.3-14.7 11.4c0 18.1 43.3 19.8 43.3 42.4s-9.4 20.1-29.1 20.1-28.9-7.9-28.9-20.1v-4.6h13.4v5.1c0 7.2 4.8 11.5 15.1 11.5s15.1-4.3 15.1-11.5c0-17.9-43.1-19.7-43.1-42.3s9.2-20.1 28.5-20.1 28.7 7.9 28.7 20.1Zm31.3 61.2v-72.4h-23.7v-8.2h61.7v8.2h-23.7v72.4h-14.2Zm50.4-11.1v11.2H722V1597Z" class="st9"/></g><path d="M1858.7 284.4c-13.6 2-26.7-10-29.1-26.6-3.1-21.7 5.1-43.2 18.7-45.2s27.8 17.9 30.7 38c2.4 16.7-6.7 31.8-20.3 33.8m41.1-52.7c-13.7 1.2-26-11.5-27.5-28.3-1.9-21.8 7.5-42.8 21.3-44 13.7-1.2 26.7 19.5 28.5 39.7 1.4 16.8-8.5 31.4-22.3 32.5Zm98.1 52.7c13.6 2 26.7-10 29.1-26.6 3.1-21.7-5.1-43.2-18.7-45.2s-27.8 17.9-30.7 38c-2.4 16.7 6.7 31.8 20.3 33.8m-41.1-52.7c13.7 1.2 26-11.5 27.5-28.3 1.9-21.8-7.5-42.8-21.3-44-13.7-1.2-26.7 19.5-28.5 39.7-1.4 16.8 8.5 31.4 22.3 32.5Zm11.1 121.3c-19.5 0-27.1-8.5-39.6-8.5s-20.1 8.5-39.6 8.5-44.5-31.7-21.3-52.6c28.8-26 37-58.8 60.9-58.8s32.2 32.7 60.9 58.8c23.2 21 4.2 52.6-21.3 52.6" class="st12"/><path d="M1469.6 552.3h67.5v67.5h-67.5Z" class="st11"/><path d="M1485.4 568h36v36h-36Z" class="st11"/><g style="filter:url(#drop-shadow-3)"><path d="m864.1 2146-35.8-53.3 17.1-24.7-43.5-64.8-29.3 6.5-32.6-48.5 164-32.1 51.9 77.3-91.7 139.7Zm-40.4-147.8 34.2 50.9 47.6-68.9-81.7 18Zm264.4 258.6-12.7 16.1c-15.3 19.3-49.4 10.3-98.5-28.4s-65.8-69.8-50.5-89.2l49.6-62.9c15.3-19.3 49.4-10.3 98.5 28.4s65.8 69.8 50.5 89.2l-9.3 11.7-47.2-37.3 10.2-13c6.8-8.6-.6-19.8-16.5-32.3s-28.5-17.1-35.3-8.5l-51.5 65.3c-6.8 8.6.7 19.6 16.6 32.2 15.9 12.5 28.3 17.3 35.2 8.7l13.6-17.3 47.2 37.3Zm217.3 151.9-60-22.8-.4-30-73-27.7-20.2 22.2-54.6-20.7 115.2-121 87.1 33.1 5.9 167Zm-118.5-97.2 57.3 21.8-1-83.7Zm186.4-46.7 100.5 5.5c63.6 3.5 94 18.6 92.7 43.2l-4.2 77.8c-1.3 24.6-33.3 36.3-96.8 32.8l-100.5-5.5 8.4-153.8Zm62.4 25.4-6 109.8 35.8 2c20.2 1.1 32.6-2.2 33.2-13.2l4.4-80c.6-11-11.3-15.6-31.5-16.7l-35.8-2Zm234.3 29 85-20.3 5.1 21.4-85 20.3 10.5 43.9 106.9-25.6 5.1 21.4-168.8 40.4-35.8-149.8 168.8-40.4 5.1 21.4-106.9 25.6Zm286.9-73-24-115.2 73.9-48.7 84.8 128.6-50.2 33.1-60.8-92.2 24.1 116.4-50.2 33.1-99.6-64.8 60 90.9-46.4 30.6-84.8-128.6 73.9-48.7Zm182.8-176.6-130.5 5.5 38.7-54.1 85.4 1.3-28.8-80.4 35.3-49.4 37 125.3 41.5 29.7-37 51.8-41.5-29.7Z" class="st9"/></g><g style="filter:url(#drop-shadow-4)"><path d="m876 1003.7 14.5 13.8c17.9 16.9 6.3 48.7-37.2 94.5l-20.5 21.7 42 39.8-43.4 45.8-111.8-105.9 64-67.5c43.4-45.8 74.5-59.1 92.4-42.2m-97 78.9 37.8 35.9 20.5-21.7c13.8-14.6 18.8-24.9 10.8-32.5l-16.8-15.9c-8-7.6-18-2.1-31.9 12.5l-20.5 21.7Zm365-116.3-53.9 34.1-24.2-17.8-65.5 41.5 5.7 29.4-49 31-28-164.5 78.1-49.4 136.7 95.8Zm-147.9 35.8 51.4-32.5-67.4-49.5 15.9 82.1Zm270.7-159.4-1.1 85.2-83.8 22.3-82.9-137.3 59.4-15.8 64 108.6-1.8-125.2 58.8-15.7 62 110.1.2-126.6 53.3-14.2-3.7 160.3-81 21.6-43.3-73.4Zm253.3 49.9-63.1-3.4 8.2-153.8 63.1 3.4-3.5 65.9 71.7 3.8 3.5-65.9 64.2 3.4-8.2 153.8-64.2-3.4 3.5-65.9-71.7-3.8Zm366.2 78.9-60.5-20-1.6-30-73.6-24.3-19.1 23.1-55.1-18.2 109.4-126 87.8 29Zm-121.5-91.6 57.8 19.1-4.4-83.5-53.3 64.4Zm273.9 7-65.1 99.4c-6 9.2 2.4 19.4 19.2 30.5 16.8 11 29.5 14.6 35.6 5.4l65.1-99.4 49.9 32.7-64.3 98.1c-13.5 20.6-48.1 14.8-100-19.2s-71-63.4-57.5-84l64.3-98.1Zm218.1 178.8c41.3 45.5 52.2 78.3 33.9 94.9l-3.6 3.3-40.2-44.2 4.7-4.3c8.1-7.4 3.5-18.7-10-33.6s-24.3-20.6-32.5-13.2c-23.4 21.3 55.2 116.7 22.6 146.2-18.2 16.6-50.3 2.3-92-43.6s-52.9-79.2-34.7-95.7l7-6.4 40.2 44.2-8.1 7.4c-8.1 7.4-2.6 19.4 10.9 34.3s24.9 21.6 33.1 14.2c23.4-21.3-55.2-116.7-22.6-146.2 18.2-16.6 49.9-2.7 91.2 42.8Z" class="st9"/></g><path d="M630.1 1169.9c8.2 0 14.9 6.7 14.9 14.9s-6.7 14.9-14.9 14.9-14.9-6.7-14.9-14.9 6.7-14.9 14.9-14.9m224.2 125.7c8.2 0 14.9 6.7 14.9 14.9s-6.7 14.9-14.9 14.9-14.9-6.7-14.9-14.9 6.7-14.9 14.9-14.9m1300.4 33.4c-8.2 0-14.9-6.7-14.9-14.9s6.7-14.9 14.9-14.9 14.9 6.7 14.9 14.9-6.7 14.9-14.9 14.9m224.2-125.8c-8.2 0-14.9-6.7-14.9-14.9s6.7-14.9 14.9-14.9 14.9 6.7 14.9 14.9-6.7 14.9-14.9 14.9M870.6 1853.4c-4.5 6.9-13.7 8.8-20.6 4.3s-8.8-13.7-4.3-20.6 13.7-8.8 20.6-4.3 8.8 13.7 4.3 20.6m-228 118.5c-4.5 6.9-13.7 8.8-20.6 4.3s-8.8-13.7-4.3-20.6 13.7-8.8 20.6-4.3 8.8 13.7 4.3 20.6m1750.7-16.3c4.5 6.9 2.6 16.1-4.3 20.6s-16.1 2.6-20.6-4.3-2.6-16.1 4.3-20.6 16.1-2.6 20.6 4.3m-228.1-118.5c4.5 6.9 2.6 16.1-4.3 20.6s-16.1 2.6-20.6-4.3-2.6-16.1 4.3-20.6 16.1-2.6 20.6 4.3" class="st1"/><path d="M1998.6 1495.7c-1.9-27.4-15.7-50-40.6-66.2l-2.2-1.4-2.4-.9c-36.3-14.4-73.5-28-110.6-40.6-.9-9.8-2.3-19.5-4-29.1l12.3-50.9c5.7-23.6 8.5-48 8.5-72.3v-1.4c-1.7-28-5.2-56.1-10.6-83.7 22-8.4 44.1-16.7 66.1-24.9l3.5-1.3 3-2.2c12.7-9.5 16.2-20.5 16.8-28.1.7-7.6-.9-19-11.8-30.7l-2.7-2.8-3.4-1.9c-47.4-26.6-99-38.4-153.4-35h-1.8c0 .1-1.8.5-1.8.5-32.6 6.7-63.1 20-90.5 39.5l-.7.5c-33.4 25.5-62.8 55.6-87.7 89.5l-2.3 3.1c-39.7-6-80.1-6.6-120.9-1.5-29.9-69.3-71.9-131.5-125.2-185l-1.3-1.3-1.4-1.1c-11-8.4-24.2-12.2-38.1-11.1l-5.7.4-5 2.8c-10.8 6.2-19.8 14.7-26.7 25.3-28.2 41.6-51.6 86.7-69.6 133.9-23.2 59.6-32.4 122.4-27.4 186.5 2.7 38.7 11.6 75 26.4 108.5l-8.9 11.4c-68.6 87.4-113.7 187.2-134 296.6l-1.9 10.2 5.7 8.6c21.7 32.7 46.7 63.5 74.5 91.6l.8.8c54.2 50.3 114 91.3 178 122 63.9 30.6 133.6 51.7 207.1 62.6l1.4.2h1.4c14.6.6 29.3.9 44 .9s29.4-.3 44-.9h.2c59.8-2.7 113.6-22.8 160.1-59.7l7.2-5.7 1.9-9c12-56.7 8.4-112.7-10.7-166.7 22.5-2.7 44.9-6.8 66.8-12.4h.4c33.5-9.3 64.3-24.7 91.5-45.9l.7-.6c52.3-43.9 75.8-99.9 69.9-166.6 4.2-9.8 7.6-20 10-30.4l.2-1.1.2-1.1c.2-1.4.4-2.9.5-4.3l.3-17.3Zm-775.6-22.3c5.5 7.3 11.3 14.4 17.5 21.4-1.6 12.4-3.4 24.9-5.3 37.3l-.2 1.1v1.1c-.6 7.9-.9 15.8-.9 23.6-7.1-27-10.8-55.3-11-84.6Zm76.2-256.9c4.4-20.4 11.2-40.4 20.5-60 14.2 21.3 26.1 44 35.4 68.2-26.1 24.3-46.2 52.8-59.9 85.2-3.7-32.2-2.3-63.6 4.1-93.4Zm447.5-18.2.4 19.9c-2.7-2-5.4-3.9-8.2-5.7 2.4-4.9 5-9.7 7.8-14.2m45 339.3.9 2.7 1.5 2.4c18.9 30.3 45.4 48.2 77.7 52.9-11.3 27.2-30.7 46.3-59 58.3-43.7 14.6-86.4 15.1-130.5 1.5-26.2-9.9-53-19.2-79.6-27.7l-1.1-.4-1.2-.3c-20.6-4.5-41.8-5.8-62.8-3.9l-44.1 4q9.45-26.25 27.9-51.3c27.6-33.4 61.8-59.5 101.4-77.6l2.3-1.1 2-1.5c35.8-25.8 50.1-61.5 41.9-103.7l1.5 3.3 1.7 3.7 2.8 3c7.6 8.2 15.9 15.9 24.6 22.7l2.1 1.6 2.4 1.2c17.1 8.3 34.8 15.6 52.7 21.8l.9.3c13.3 4 26.6 8.3 39.9 12.7-13.7 20.3-16 46.1-5.9 75.2Zm-178.9-211.9q-13.5-5.1-28.5-5.1h-2.7c23.5-1.6 43.2 6.1 61.2 23.5.9 1.3 1.7 2.7 2.5 4-9.4-10.4-20.3-18-32.5-22.5Zm-135.6 536.7c-20.1-7-39.7-15.7-58.8-26.3 8 .8 16.2 1.3 24.3 1.6l57.3 1.9-29.2-34.7c2.8.9 5.7 1.8 8.5 2.6l52.9 15.3-6.8 52.7c-16.6-3.3-32.7-7.7-48.4-13.1Zm30-94.7c-6-8.1-10.8-17-14.4-26.6-11.3-37.3-12.1-72.2-2.1-105.4l31.1 31.1c18.3 18.3 38.7 34 60.9 46.8-7.3 6.3-13.9 13.3-19.6 20.8-14.9 19.6-24.4 43.3-28.4 70.5l-27.5-37.3Zm294.6-458.5h.2-.3Zm-144.4 495.7-.4 1.5c-6.5 24.6-9.4 49.8-8.7 75.1-42.4 3.8-83.1 1.9-121.5-5.7l50.1-45.6c25.8-23.5 54.9-38.2 89-44.8-3.4 6.2-6.2 12.8-8.5 19.6Z" class="st9"/><path d="m1719.4 1990.7-3.8.7-3.4 1.7c-37.5 19.1-78.1 30-120.5 32.5l-58.4 3.4-39-6.5c-65-10.9-128-30.9-187.4-59.7l-.5-.2c-49.2-22.6-94.8-50.8-135.7-83.5-40.9-32.8-78.2-71.2-110.8-114.2l-31.8-41.8-13.4 50.8c-4.4 16.8-8.6 33.9-12.3 50.9l-1 4.6.7 4.7q1.35 9 6.3 16.8l.4.7.5.7c58.8 80.7 131.6 148 216.2 200.2 60.9 37.4 124 71.9 188.7 103l17.9 8.5c38.8 18.3 78.2 35.3 118 51.2l6.9 2.7 7.3-1.4c6.1-1.1 11.7-4 16.2-8.1l3.1-2.9 15.2-28.2.7-2.3c8-25.4 8.3-48.8.8-69.8-2-5.6-4.6-11-7.6-16.1 11.9 17.7 16.5 38 13.7 61.5l-8.9 76.7 53-56.2c40.1-42.5 73.6-90.5 99.7-142.9l9.4-18.7-16.5-12.9c-6.8-5.3-15.2-7.4-23.7-5.9m-163.9 61.2-1.9-1.2-2.1-.9c-4.8-2-9.5-3.6-14.2-4.9l5.9-4.3 13.5 12.1c-.4-.3-.8-.5-1.2-.8" class="st9"/><path d="M1947.6 1445c-41.7-16.5-83.9-31.8-126.5-45.9-.8-16.9-2.8-33.7-6.1-50.3-9.5-24.8-24.6-29.4-45.1-13.9-6.2 9.5-9.4 19.9-9.5 31.2q-10.8-9.45-16.5-22.5c-9.2-36 4.4-57.3 40.7-64.1-26.5-32.6-58.9-57.7-97.1-75.4q-117-51.3-242.7-30.3c-29.2-74.6-72-140.1-128.3-196.7-6.1-4.6-13.1-6.7-20.8-6.1-7.4 4.2-13.5 10-18.2 17.3-27.5 40.6-50 83.9-67.6 130-22.1 56.8-30.7 115.7-26 176.8 5.1 71.9 32.2 133.7 81.5 185.5-2 16.7-4.3 33.5-6.9 50.3-4.3 63.7 8.1 123.8 37.3 180.3-8.6-6-17-13.5-25.1-22.5-56.8-75.3-81.7-160.2-74.5-254.8-66.9 85.2-110.2 181.1-130 287.8 21 31.7 45 61.2 71.9 88.4q158.85 147.45 374.4 179.4 43.35 1.8 86.7 0c55-2.5 103.8-20.7 146.5-54.6 11.9-56.4 7.3-111.3-13.9-164.7-1-.9-2.1-1.5-3.5-1.7-8.2 3-16.6 5.6-25.1 7.8-9.1 9.8-15.7 21-19.9 33.8-8 30.2-10 60.8-6.1 91.9q-225.6 31.05-383.1-132.6 69.45 37.2 149.1 39.9c-9-10.8-17.4-22-25.1-33.8q-11.55-18.75-15.6-39.9c25.1 20.5 53.2 35.2 84.1 44.2-7.6-10.4-13.7-21.6-18.2-33.8-21.2-69.1-10.2-132.7 32.9-190.7 30.6-37.1 67.9-65.7 111.8-85.8q44.55-32.1 30.3-85.8c-20.1-42.3-51.6-54.1-94.5-35.5-27.9 19-47 44.7-57.2 77.1-1.4-5.1-2.3-10.3-2.6-15.6-6.3-58.3 17.7-97.9 71.9-118.7 40.2-8.8 74.6 1.3 103.1 30.3a446 446 0 0 1 31.2 57.2c6.7 7.3 13.9 13.9 21.7 19.9 16.3 7.9 33.1 14.9 50.3 20.8 28.7 8.7 57 18.2 84.9 28.6-35 15-46.3 40.5-33.8 76.3 20.1 32.1 49.3 46 87.5 41.6-.7 7.5-1.6 15-2.6 22.5q-19.35 61.05-78.9 85.8c-49.4 16.7-99.1 17.3-149.1 1.7-26.3-9.9-52.9-19.2-79.7-27.7-18.3-4-36.8-5.2-55.5-3.5 27.8 27.8 60.1 48.6 97.1 62.4q-67.8 28.65-77.1 101.4c31.3-28.5 68-46.1 110.1-52.9 28.2-3.6 56.6-6.4 84.9-8.7 22.2-2.5 44.2-6.6 65.9-12.1 30.6-8.4 58.4-22.3 83.2-41.6 47.8-40.1 68-90.9 60.7-152.5 5-10.2 8.7-20.9 11.3-32.1 3.8-27.3-5.7-48.4-28.6-63.3Zm-642.3-96.2c-1.8 13.8-3 27.7-3.5 41.6-17.6-22.4-28.5-47.8-32.9-76.3-10.7-76.8 4.6-147.8 45.9-213.2q46.35 55.05 69.3 123.9-60 48.6-78.9 123.9Zm276.5 26c12.5-1.1 21.5 4.1 26.9 15.6 2.3 21.4.3 15.8-21 12.3-7.4-2.2-19.3 7.5-20.6-.1-2.8-13.5 2.1-22.7 14.7-27.7Zm299.9 113.6c-9.6 3-16 9-19.1 18.2-.4 4 .1 7.7 1.7 11.3-2.3.9-3.4 0-3.5-2.6-10-10.1-10.9-21-2.6-32.9q42.3-30.6 85.8-.9c-17.4 19.8-37.7 24.8-62.4 6.9Z" class="st12"/><path d="M1717 1194.5c12.7-26.9 31.4-48.8 56.3-65.9.6 31.2 1.2 62.4 1.7 93.6q34.65 29.55 53.7 71.1c5.3-21.9 7.9-44.2 7.8-66.7-2-33.3-6.6-66.2-13.9-98.8.6-1.4 1.2-2.9 1.7-4.3 28.2-10.9 56.6-21.6 84.9-32.1 8.4-6.2 8.9-13.2 1.7-20.8q-65.4-36.75-140.4-32.1c-29.5 6.1-56.7 17.9-81.5 35.5-31.8 24.3-59.5 52.6-83.2 84.9 19.8 4.7 39.4 9.9 58.9 15.6 17.2 7.1 34.5 13.8 52 19.9Zm-175.1 878c-33.2-13.8-61.2-7.2-84.1 19.9 5.3-18.8 15.9-34.1 32.1-45.9q-102.45-17.1-195.9-62.4c-103.4-47.6-189.5-116.7-258.3-207.1-4.4 16.6-8.4 33.4-12.1 50.3.4 2.5 1.2 4.8 2.6 6.9q86.4 118.5 210.6 195c103 63.2 210.7 117.3 323.3 162.1 1.3-.3 2.5-.8 3.5-1.7 4-7.5 8.1-15 12.1-22.5 12.8-40.3 1.5-71.8-33.8-94.5Zm183.8-58c-41.2 21-85.1 32.8-131.7 35.5 30.8 27.6 43.8 62 39 103.1 38.8-41.1 70.9-87.1 96.2-137.8-1-.8-2.2-1.1-3.5-.9Z" class="st12"/><path d="m468.7 1974.6 6.9 10.3-47.3 54.8 69.9-20.9 7.2 10.8-46.5 55.5 68.6-22.3 6.9 10.4-82.7 24.2-7.2-10.8 43.6-53.9-66.9 18.9-7.2-10.6Zm89.6 198.2-29-34.8-28.6 23.9-7.4-8.9 63.2-52.7 7.4 8.9-27.7 23.1 29 34.8 27.7-23.1 7.4 8.9-63.2 52.7-7.4-8.9Zm98.1 51.5-25.4-25.8-19.6 19.3 22.7 23.1-6.3 6.2-22.7-23.1-20.2 19.9 25.4 25.8-6.3 6.2-33.5-34.1 58.7-57.8 33.5 34.1Zm57.4 40.6c15.8 13.7 16.2 28.3 7.4 38.5-6.9 7.9-18.2 11.4-31.4 3.9l-5.8 40.6-10.5-9.1 6.1-39.3-10.6-9.2-22.1 25.4-8.8-7.6L692 2246l21.6 18.8Zm-5.8 6.7-12.9-11.2-20.4 23.5 12.9 11.2c9.9 8.6 18.6 7.4 24.6.4 6.1-7 5.8-15.3-4.2-24Zm94.4 74.4-29.1-21.5-16.4 22.1 26 19.3-5.3 7.1-26-19.3-16.8 22.8 29.1 21.5-5.3 7.1-38.4-28.4 49-66.2 38.4 28.4-5.3 7.1Zm71.8 132.9c-15.6-8.7-22.1-22.9-15.6-34.9l10.8 6c-2.7 6.3-1.5 14.9 9.3 20.9 9.8 5.5 18.4 3.6 22.3-3.2 10.9-19.3-38-30.5-23-57.2 6.6-11.8 21.5-14.1 36.8-5.5 14.8 8.3 20.2 21.2 15.3 32.8l-11.1-6.2c2-5.2.2-13.4-9.2-18.8-8.2-4.9-17-4.5-21.4 3.2-10.4 18.5 37.9 30.4 23 57-5.7 10.2-20.4 15.2-37.2 5.8Zm102.8-40 10.5 5-35.6 74.2-10.5-5Zm44.7 21 55.7 22.6-3.3 8.1-22.4-9.1-27.6 68.1-10.7-4.4 27.6-68.1-22.6-9.2 3.3-8.1Zm180.8 127.6-37.5-9.7-11.5 15.9-11.8-3.1 51.5-71.2 13 3.3 10.6 87.2-11.8-3.1-2.3-19.5Zm-6.2-53.5-25.9 36.2 31.1 8Zm145.7 14.8-13.1 81.3-11.4-1.8-35.6-72.1-10.4 64.7-11.4-1.8 13.1-81.3 11.4 1.8 35.6 72 10.4-64.5 11.4 1.8Zm114 51c-1.7 25.4-20.6 39.7-49.8 37.7l-27.6-1.8 5.5-82.1 27.6 1.8c29.1 1.9 46 18.9 44.3 44.3Zm-49.2 28.9c23.1 1.5 36-9.7 37.4-29.7 1.3-20-9.9-33.3-33.1-34.8l-16-1.1-4.3 64.5Zm181.7 10.1c-17.8 1.2-31-7.1-32.2-20.6l12.3-.8c1.2 6.8 6.9 13.3 19.2 12.4 11.2-.8 17.4-7.1 16.9-14.9-1.5-22.1-48.5-4.8-50.5-35.3-.9-13.5 10.3-23.5 27.8-24.7 16.9-1.1 28.6 6.7 30.8 19.1l-12.7.9c-1.1-5.5-7.2-11.3-18-10.7-9.6.4-16.7 5.5-16.1 14.3 1.4 21.2 48.4 4.8 50.4 35.1.8 11.7-8.7 23.9-27.9 25.2m58.2-88.6 59.5-8.8 1.3 8.6-24 3.5 10.7 72.7-11.5 1.7-10.7-72.7-24.1 3.6-1.3-8.6Zm161.8 34.6-37.7 8.9-2.8 19.4-11.9 2.8 12.6-87 13-3.1 49.8 72.3-11.9 2.8-11.1-16.2Zm-30.4-44.5-6.1 44.1 31.3-7.3-25.1-36.8Zm62.9-30.3 12.2-4 33.8 32.7 7.8-46.4 12.2-4-11.5 57.7 9.7 29.5-11 3.6-9.7-29.5-43.6-39.6Zm223-41-40.7 19.8 16.3 33.5-10.4 5.1-36-73.9 10.4-5.1 15.8 32.5 40.7-19.8-15.8-32.5 10.4-5.1 36 73.9-10.4 5.1Zm105.8-38.3-33.1 20.1 3.4 19.3-10.5 6.3-14.9-86.6 11.4-6.9 69.7 53.4-10.5 6.3-15.6-11.9Zm-42.6-32.9 7.8 43.8 27.5-16.6ZM2235 2367l-13.8 10.1 20.2 27.7-9.4 6.8-48.5-66.5 23.2-16.9c16.9-12.3 31.1-9.5 39 1.4 7.4 10.1 7 24.4-10.8 37.4Zm-5.2-7.2c10.7-7.8 11.8-15.8 6.4-23.2-5.6-7.7-13.5-9-24.2-1.2l-13.8 10.1 17.8 24.4Zm83.9-55.4-12.9 11.1 22.4 26-8.8 7.6-53.6-62.4 21.7-18.7c15.8-13.6 30.2-12 39-1.8 8.2 9.5 9 23.7-7.7 38.1Zm-5.7-6.7c10-8.6 10.5-16.7 4.5-23.7-6.2-7.2-14.2-7.9-24.2.8l-12.9 11.1 19.7 22.9Zm64.9-103-25.6 25.6 19.5 19.4 22.9-22.9 6.3 6.2-22.9 22.9 20.1 20 25.6-25.6 6.3 6.2-33.7 33.8-58.3-58.2 33.7-33.8 6.3 6.2Zm66.5-89.2 62.9 53.1-7.5 8.9-80.1-6.6 50 42.2-7.5 8.9-62.9-53.1 7.5-8.9 80 6.5-50-42.2 7.5-8.9Zm109.9-8.9c-10.3 14.6-25.1 19.6-36.3 12l7.1-10.1c6 3.3 14.6 3 21.8-7.1 6.5-9.2 5.5-18-.9-22.5-18.1-12.8-34.2 34.7-59.2 17-11.1-7.8-11.8-22.8-1.7-37.2 9.8-13.9 23.2-18 34.2-11.9l-7.3 10.4c-5-2.6-13.3-1.6-19.7 7.2-5.7 7.7-6.3 16.5 1 21.6 17.4 12.2 34.2-34.5 59.1-17 9.5 6.7 13.1 21.8 2 37.6Zm-27.5-109.2 6.5-10.7 49.7 31.9-5 8.3-51.1-29.5Zm74.4 37.4c-2.3 3.8-6.8 5.1-10.4 2.9-3.5-2.1-4.5-6.7-2.1-10.6 2.2-3.6 6.7-4.9 10.2-2.7 3.5 2.1 4.5 6.7 2.3 10.3Z" class="st4"/></svg>